<svg xmlns="http://www.w3.org/2000/svg" viewBox="0 0 512 490.68"><title>kuhni</title><g id="Слой_2" data-name="Слой 2"><g id="Layer_1" data-name="Layer 1"><path d="M320,277.34a10.66,10.66,0,0,0-10.67-10.66H266.66A10.65,10.65,0,0,0,256,277.34H234.66A10.65,10.65,0,0,0,224,266.68H181.33a10.66,10.66,0,0,0-10.67,10.66H0V490.68H512V277.34H320Zm-53.34,32a10.67,10.67,0,0,0,10.67-10.66H288a10.66,10.66,0,0,0,21.33,0H320V320H181.33V298.68H192a10.66,10.66,0,0,0,21.33,0H224a10.66,10.66,0,0,0,21.33,0H256A10.66,10.66,0,0,0,266.66,309.34ZM160,469.34H21.33V298.68H160Zm21.33,0v-128H320v128ZM490.66,298.68V469.34H341.33V298.68Z"/><path d="M362.66,0V192H512V0Zm128,170.67H384V21.34H490.66Z"/><path d="M149.33,0H0V192H149.33ZM128,170.67H21.33V21.34H128Z"/><path d="M298.66,352h-96a10.67,10.67,0,0,0,0,21.34h96a10.67,10.67,0,1,0,0-21.34Z"/><path d="M181.33,149.34H330.66a10.67,10.67,0,0,0,10.67-10.66V85.34a10.67,10.67,0,0,0-10.67-10.66H320V0H192V74.67H181.33a10.67,10.67,0,0,0-10.67,10.66v53.34A10.67,10.67,0,0,0,181.33,149.34Zm32-128h85.33V74.67H213.33ZM192,96H320v32H298.66a10.66,10.66,0,1,0-21.33,0H266.66a10.66,10.66,0,1,0-21.33,0H234.66a10.66,10.66,0,1,0-21.33,0H192Z"/><path d="M362.66,405.34a10.67,10.67,0,0,0,10.67-10.66V373.34a10.66,10.66,0,0,0-21.33,0v21.34A10.66,10.66,0,0,0,362.66,405.34Z"/><path d="M42.66,362.68A10.65,10.65,0,0,0,32,373.34v21.34a10.66,10.66,0,0,0,21.33,0V373.34A10.66,10.66,0,0,0,42.66,362.68Z"/><path d="M42.66,117.34a10.67,10.67,0,0,0,10.67-10.66V85.34a10.66,10.66,0,1,0-21.33,0v21.34A10.66,10.66,0,0,0,42.66,117.34Z"/><path d="M405.33,117.34A10.67,10.67,0,0,0,416,106.67V85.34a10.67,10.67,0,0,0-21.34,0v21.34A10.67,10.67,0,0,0,405.33,117.34Z"/><path d="M213.33,224a10.64,10.64,0,0,0,7.39-3h0c1.59-1.52,9.47-9.68,8.78-20.66-.28-4.59-2.2-11.24-9.78-16.91a5.53,5.53,0,0,1-1.27-1.22,9.39,9.39,0,0,1,2.36-4l-.09.09h0A10.66,10.66,0,1,0,205.94,163h0c-1.59,1.52-9.45,9.68-8.78,20.66.28,4.59,2.22,11.24,9.78,16.91a5.2,5.2,0,0,1,1.27,1.22,9.33,9.33,0,0,1-2.36,4l.09-.09h0A10.65,10.65,0,0,0,213.33,224Z"/><path d="M256,224a10.66,10.66,0,0,0,7.39-3h0c1.58-1.52,9.45-9.68,8.78-20.66-.28-4.59-2.22-11.24-9.78-16.91a5.2,5.2,0,0,1-1.27-1.22,9.39,9.39,0,0,1,2.36-4l-.09.09h0A10.66,10.66,0,1,0,248.61,163h0c-1.59,1.52-9.47,9.68-8.78,20.66.28,4.59,2.2,11.24,9.78,16.91a5.53,5.53,0,0,1,1.27,1.22,9.33,9.33,0,0,1-2.36,4l.09-.09h0A10.65,10.65,0,0,0,256,224Z"/><path d="M298.66,224a10.61,10.61,0,0,0,7.39-3h0c1.58-1.52,9.45-9.68,8.77-20.66-.28-4.59-2.2-11.24-9.78-16.91a5.53,5.53,0,0,1-1.27-1.22,9.39,9.39,0,0,1,2.36-4l-.08.09h0A10.66,10.66,0,1,0,291.28,163h0c-1.58,1.52-9.45,9.68-8.78,20.66.3,4.59,2.22,11.24,9.8,16.91a5.53,5.53,0,0,1,1.27,1.22,9.22,9.22,0,0,1-2.37,4l.09-.09h0A10.65,10.65,0,0,0,298.66,224Z"/></g></g></svg>