<svg xmlns="http://www.w3.org/2000/svg" viewBox="0 0 232.5 228.75"><title>detskie</title><g id="Слой_2" data-name="Слой 2"><g id="Слой_1-2" data-name="Слой 1"><path d="M225,221.25V0h-7.5V56.25h-4.44a11.09,11.09,0,0,0,.69-3.75A11.26,11.26,0,0,0,202.5,41.25H63.75A11.26,11.26,0,0,0,52.5,52.5a11.09,11.09,0,0,0,.69,3.75H48.05a11,11,0,0,0,.7-3.75A11.26,11.26,0,0,0,37.5,41.25H30a11.14,11.14,0,0,0-10.56,15H15V0H7.5V221.25H0v7.5H232.5v-7.5ZM63.75,48.75H202.5a3.75,3.75,0,0,1,0,7.5H63.75a3.75,3.75,0,0,1,0-7.5Zm90,22.5v-7.5H195v7.5ZM195,78.75v7.5H153.75v-7.5Zm0,105v7.5H153.75v-7.5ZM30,48.75h7.5a3.75,3.75,0,0,1,0,7.5H30a3.75,3.75,0,0,1,0-7.5Zm-15,15H146.25v7.5H15Zm112.5,97.5v-6.07l-2.86-1.43h21.61v7.5Zm18.75,7.5v7.5H127.5v-7.5ZM15,78.75H146.25v67.5h-22.5V132.39a19.88,19.88,0,0,0-19.89-19.89H97.52a15,15,0,1,0-15-15,15,15,0,0,0,15,15H91.14a19.88,19.88,0,0,0-19.89,19.89v13.86h-7.5A11.26,11.26,0,0,0,52.5,157.5a11.09,11.09,0,0,0,.69,3.75H48.05a11,11,0,0,0,.7-3.75A11.26,11.26,0,0,0,37.5,146.25H30a11.14,11.14,0,0,0-10.56,15H15Zm82.5,78.63-18.75,4.69v38.55a1.88,1.88,0,0,1-3.75,0V159.82l15-7.5V131.25H82.5v16.43l-3.75,1.88V132.39A12.39,12.39,0,0,1,91.13,120h12.73a12.38,12.38,0,0,1,12.38,12.39v17.17l-3.75-1.87V131.25H105v21.07l15,7.5v40.81a1.87,1.87,0,0,1-3.75,0V162.07Zm11.25,10.54v8.32H86.25v-8.32l11.25-2.81ZM90,97.5a7.5,7.5,0,1,1,7.5,7.5A7.51,7.51,0,0,1,90,97.5ZM30,168.75H67.5v7.5H15v-7.5ZM26.25,157.5A3.75,3.75,0,0,1,30,153.75h7.5a3.75,3.75,0,0,1,0,7.5H30a3.75,3.75,0,0,1-3.75-3.75Zm41.25-2.32v6.07H63.75a3.75,3.75,0,0,1,0-7.5h6.61Zm78.75,66.07H15v-37.5H67.5v16.88a9.37,9.37,0,0,0,18.75,0V183.75h22.5v16.88a9.38,9.38,0,0,0,18.75,0V183.75h18.75Zm7.5-22.5H195v7.5H153.75ZM195,221.25H153.75v-7.5H195Zm0-45H153.75v-7.5H195Zm0-15H153.75v-7.5H195Zm0-15H153.75v-7.5H195Zm0-15H153.75v-7.5H195Zm0-15H153.75v-7.5H195Zm0-15H153.75v-7.5H195Zm22.5,120h-15v-37.5h15Zm0-45h-15v-7.5h15Zm0-15h-15V78.75h15Zm0-90h-15v-7.5h15Zm0,0"/></g></g></svg>