<svg xmlns="http://www.w3.org/2000/svg" viewBox="0 0 46.4 48"><title>shkafy</title><g id="Слой_2" data-name="Слой 2"><g id="Слой_1-2" data-name="Слой 1"><path d="M8.8,36.8A.8.8,0,0,0,8,36H7.2V32H9.6V24H3.2v8H5.6v4H4.8a.8.8,0,1,0,0,1.6H0v8.8H.8v.8a.8.8,0,1,0,1.6,0v-.8h8v.8a.8.8,0,1,0,1.6,0v-.8h.8V37.6H8a.8.8,0,0,0,.8-.8Zm-4-11.2H8v4.8H4.8Zm6.4,13.6v5.6H1.6V39.2Zm0,0"/><path d="M16,0V46.4h1.6v.8a.8.8,0,1,0,1.6,0v-.8H44v.8a.8.8,0,1,0,1.6,0v-.8h.8V0Zm8,16.33,1.27,1.27H22.73ZM17.6,12V10.4H35.2V12Zm19.2-1.6h8v7.2h-8ZM35.2,1.6V8.8H17.6V1.6Zm-8,43.2a1.6,1.6,0,0,1,0-3.2h3.2a.8.8,0,1,0,0-1.6H27.2A3.2,3.2,0,0,0,24,43.2a3.16,3.16,0,0,0,.44,1.6H17.6V13.6h5.6v1.26l-3,3a.81.81,0,0,0-.17.87.77.77,0,0,0,.43.43.75.75,0,0,0,.3.06h6.4a.75.75,0,0,0,.31-.06.77.77,0,0,0,.43-.43.81.81,0,0,0-.17-.87l-3-3V13.6H35.2V44.8ZM36.8,28h8v7.2h-8Zm8,16.8h-8v-8h8Zm0-18.4h-8V19.2h8Zm-8-17.6V1.6h8V8.8Zm0,0"/><path d="M30.4,37.6H24.8a.8.8,0,1,0,0,1.6h5.6a1.6,1.6,0,1,1,0,3.2H27.2a.8.8,0,0,0,0,1.6h3.2a3.2,3.2,0,1,0,0-6.4Zm0,0"/></g></g></svg>