<svg xmlns="http://www.w3.org/2000/svg" viewBox="0 0 48 48"><title>ofis</title><g id="Слой_2" data-name="Слой 2"><g id="Слой_1-2" data-name="Слой 1"><path d="M47.2,20V12.8H40.8V20H35.37l-.23-1.6H39.2V0H8.8V18.4h3.95L12.5,20H0v8H.8V48h4V31.2A3.2,3.2,0,0,1,8,28h3.29l0,.22A3.2,3.2,0,0,0,14.4,32h7.2v2.4h1.6V36H21.6v1l-9.78,2.26-.06,0-.15.07a.71.71,0,0,0-.12.09l-.11.11-.09.12a.87.87,0,0,0-.05.14.68.68,0,0,0,0,.16.4.4,0,0,0,0,.07v.84a3.59,3.59,0,1,0,1.6.18v-.38l8.8-2v.26l-1.94,1.94H19.6a3.64,3.64,0,1,0,1.82.51L22.73,40h2.54l1.31,1.31a3.58,3.58,0,1,0,1.82-.51h-.06L26.4,38.87v-.26l8.8,2V41a3.61,3.61,0,1,0,1.6-.18V40a.4.4,0,0,0,0-.07.68.68,0,0,0,0-.16.83.83,0,0,0-.05-.14l-.09-.13-.1-.11-.12-.09-.15-.06-.06,0L26.4,37V36H24.8V34.4h1.6V32h7a3.2,3.2,0,0,0,3.15-3.75l0-.25H40a3.2,3.2,0,0,1,3.2,3.2V48h4V28H48V20ZM13.6,44.4a2,2,0,1,1-2-2,2,2,0,0,1,2,2Zm6,2a2,2,0,1,1,2-2,2,2,0,0,1-2,2Zm10.8-2a2,2,0,1,1-2-2,2,2,0,0,1,2,2Zm8,0a2,2,0,1,1-2-2,2,2,0,0,1,2,2ZM23.2,37.6h1.6v.8H23.2ZM44.8,14.4h.8V20h-.8Zm-2.4,0h.8V20h-.8Zm-4.8,2.4H34.89l-.35-2.4H37.6ZM10.4,1.6H37.6V12.8H34.3l-.79-5.39a3.17,3.17,0,0,0-.14-.49l-.05-.14a3.61,3.61,0,0,0-.16-.33l-.07-.13a3.9,3.9,0,0,0-.29-.4h0a3.25,3.25,0,0,0-.45-.42l-.17-.12a3,3,0,0,0-.37-.22l-.2-.09a3.05,3.05,0,0,0-.41-.14L31,4.87a3.12,3.12,0,0,0-.64-.07H17.56a3.43,3.43,0,0,0-.64.07l-.19.05a2.73,2.73,0,0,0-.41.14l-.21.1a3.07,3.07,0,0,0-.34.2l-.2.14a3.73,3.73,0,0,0-.33.31s-.08.07-.12.11a3.09,3.09,0,0,0-.31.44l0,.06a3,3,0,0,0-.19.41l0,.1a3.18,3.18,0,0,0-.14.51l-.82,5.36H10.4Zm0,12.8h3L13,16.8H10.4ZM8,26.4a4.81,4.81,0,0,0-4.8,4.8V46.4H2.4v-20H1.6V21.6H12.26l-.73,4.8Zm16.8,6.4H23.2V32h1.6ZM35,28.51a1.6,1.6,0,0,1-1.57,1.89h-19a1.59,1.59,0,0,1-1.23-.58,1.61,1.61,0,0,1-.34-1.34l.48-3.13L14.12,20l.24-1.6.77-5.08L16,7.71a1.4,1.4,0,0,1,.11-.36l0-.08a1.49,1.49,0,0,1,.2-.3l0,0a1.55,1.55,0,0,1,.21-.2l.09-.06.18-.11.1,0,.21-.07.09,0a1.71,1.71,0,0,1,.32,0H30.37a1.71,1.71,0,0,1,.32,0l.09,0,.21.07.09,0,.21.12.05,0a1.67,1.67,0,0,1,.24.23,1.64,1.64,0,0,1,.21.33v0a1.39,1.39,0,0,1,.12.35l.76,5.12.82,5.6.23,1.6,1.18,8ZM46.4,26.4h-.8v20h-.8V31.2A4.81,4.81,0,0,0,40,26.4H36.31l-.18-1.2-.53-3.6H46.4Zm0,0"/><path d="M9.6,23.2H4a.8.8,0,0,0,0,1.6H9.6a.8.8,0,0,0,0-1.6Zm0,0"/><path d="M44,23.2H38.4a.8.8,0,0,0,0,1.6H44a.8.8,0,0,0,0-1.6Zm0,0"/></g></g></svg>