<svg xmlns="http://www.w3.org/2000/svg" viewBox="0 0 48 48"><title>prihozhie</title><g id="Слой_2" data-name="Слой 2"><g id="Слой_1-2" data-name="Слой 1"><path d="M45.6,36V2.4H24.8V44H45.6ZM26.4,4H44v6.4H26.4Zm0,8H44v6.4H26.4Zm0,8H44v6.4H26.4Zm0,8H44v6.4H26.4ZM44,42.4H26.4V36H44Zm0,0"/><path d="M36.8,22.4H33.6a.8.8,0,1,0,0,1.6h3.2a.8.8,0,1,0,0-1.6Zm0,0"/><path d="M36.8,14.4H33.6a.8.8,0,1,0,0,1.6h3.2a.8.8,0,1,0,0-1.6Zm0,0"/><path d="M36.8,6.4H33.6a.8.8,0,1,0,0,1.6h3.2a.8.8,0,0,0,0-1.6Zm0,0"/><path d="M36.8,30.4H33.6a.8.8,0,1,0,0,1.6h3.2a.8.8,0,0,0,0-1.6Zm0,0"/><path d="M33.6,40h3.2a.8.8,0,1,0,0-1.6H33.6a.8.8,0,1,0,0,1.6Zm0,0"/><path d="M0,0V48H4V46.4H44V48h4V0ZM46.4,46.4h-.8V44.8H2.4v1.6H1.6V1.6H46.4Zm0,0"/><path d="M24,2.4H2.4V44H24ZM22.4,15.2H16.8v-.8a.8.8,0,0,0-1.6,0v.8h-.8v-.8a.8.8,0,0,0-1.6,0v.8H12v-.8a.8.8,0,0,0-1.6,0v.8H9.6v-.8a.8.8,0,0,0-1.6,0v.8H4V12.8H22.4ZM4,16.8H8v1.6a.8.8,0,1,0,1.6,0V16.8h.8v1.6a.8.8,0,0,0,1.6,0V16.8h.8v1.6a.8.8,0,1,0,1.6,0V16.8h.8v1.6a.8.8,0,1,0,1.6,0V16.8h5.6V36H4ZM22.4,4v7.2H4V4ZM4,42.4V37.6H22.4v4.8Zm0,0"/></g></g></svg>