<svg xmlns="http://www.w3.org/2000/svg" xmlns:xlink="http://www.w3.org/1999/xlink" viewBox="0 0 48 37.6"><defs><style>.cls-1{fill:none;}.cls-2{clip-path:url(#clip-path);}</style><clipPath id="clip-path" transform="translate(0 -0.32)"><rect class="cls-1" width="48" height="38.88"/></clipPath></defs><title>krovati</title><g id="Слой_2" data-name="Слой 2"><g id="Слой_1-2" data-name="Слой 1"><g class="cls-2"><path d="M48,22.87a1.44,1.44,0,0,0,0-.18.94.94,0,0,0,0-.36L45.75,4.22l0-.12A5.12,5.12,0,0,0,40.89.32H7.11A5.11,5.11,0,0,0,2.28,4.1L0,22.32a.94.94,0,0,0,0,.36,1.44,1.44,0,0,0,0,.18v4.51a2.53,2.53,0,0,0,.7,1.75A2.53,2.53,0,0,0,0,30.87V33a2.54,2.54,0,0,0,1.6,2.36v2.59H8.8v-2.4H39.2v2.4h7.2V35.33A2.54,2.54,0,0,0,48,33V30.87a2.53,2.53,0,0,0-.7-1.75,2.53,2.53,0,0,0,.7-1.75ZM7.82,13.49,11.71,9.6A1.65,1.65,0,0,1,14,9.6l3.88,3.89a1.62,1.62,0,0,1,.23,2H7.6a1.63,1.63,0,0,1,.23-2ZM7.2,17.12H40.8a4,4,0,0,1,3.92,3.2H3.28a4,4,0,0,1,3.92-3.2Zm22.08-3.63L33.17,9.6a1.65,1.65,0,0,1,2.32,0l3.88,3.89a1.62,1.62,0,0,1,.23,2H29.05a1.63,1.63,0,0,1,.23-2ZM1.6,27.38V22.86a1.49,1.49,0,0,1,.12-.43l.06-.09a.79.79,0,0,1,.14-.18L2,22.09A.92.92,0,0,1,2.2,22a1,1,0,0,1,.34-.07H45.45a1,1,0,0,1,.34.07.91.91,0,0,1,.15.09.78.78,0,0,0-.34.64.8.8,0,0,0,.8.8v3.2a.8.8,0,0,0-.8.8.78.78,0,0,0,.34.64.9.9,0,0,1-.49.16H2.55a1,1,0,0,1-.95-.95ZM3.84,4.48A3.54,3.54,0,0,1,7.11,1.92H40.89a3.55,3.55,0,0,1,3.28,2.56l1.78,14.43a5.61,5.61,0,0,0-4.63-3.36,3.21,3.21,0,0,0-.81-3.19L36.62,8.47a3.25,3.25,0,0,0-4.59,0l-3.88,3.88a3.2,3.2,0,0,0-.82,3.16H19.87a3.21,3.21,0,0,0-.82-3.16L15.17,8.47a3.25,3.25,0,0,0-4.59,0L6.7,12.35a3.22,3.22,0,0,0-.77,3.32,5.61,5.61,0,0,0-3.86,3.23ZM7.2,36.32h-4v-.8h4Zm37.6,0h-4v-.8h4ZM46.4,33a1,1,0,0,1-.95.95H2.55A1,1,0,0,1,1.6,33V30.86a.94.94,0,0,1,.95-.94H45.46a.94.94,0,0,1,.94.95Zm0,0" transform="translate(0 -0.32)"/></g><path d="M6.4,25.12a.8.8,0,1,1-.8-.8.8.8,0,0,1,.8.8Zm0,0" transform="translate(0 -0.32)"/><path d="M4,22.72a.8.8,0,1,1-.8-.8.8.8,0,0,1,.8.8Zm0,0" transform="translate(0 -0.32)"/><path d="M8.8,22.72a.8.8,0,1,1-.8-.8.8.8,0,0,1,.8.8Zm0,0" transform="translate(0 -0.32)"/><path d="M4,27.52a.8.8,0,1,1-.8-.8.8.8,0,0,1,.8.8Zm0,0" transform="translate(0 -0.32)"/><path d="M8.8,27.52a.8.8,0,1,1-.8-.8.8.8,0,0,1,.8.8Zm0,0" transform="translate(0 -0.32)"/><path d="M11.2,25.12a.8.8,0,1,1-.8-.8.8.8,0,0,1,.8.8Zm0,0" transform="translate(0 -0.32)"/><path d="M16,25.12a.8.8,0,1,1-.8-.8.8.8,0,0,1,.8.8Zm0,0" transform="translate(0 -0.32)"/><path d="M13.6,22.72a.8.8,0,1,1-.8-.8.8.8,0,0,1,.8.8Zm0,0" transform="translate(0 -0.32)"/><path d="M18.4,22.72a.8.8,0,1,1-.8-.8.8.8,0,0,1,.8.8Zm0,0" transform="translate(0 -0.32)"/><path d="M13.6,27.52a.8.8,0,1,1-.8-.8.8.8,0,0,1,.8.8Zm0,0" transform="translate(0 -0.32)"/><path d="M18.4,27.52a.8.8,0,1,1-.8-.8.8.8,0,0,1,.8.8Zm0,0" transform="translate(0 -0.32)"/><path d="M20.8,25.12a.8.8,0,1,1-.8-.8.8.8,0,0,1,.8.8Zm0,0" transform="translate(0 -0.32)"/><path d="M25.6,25.12a.8.8,0,1,1-.8-.8.8.8,0,0,1,.8.8Zm0,0" transform="translate(0 -0.32)"/><path d="M23.2,22.72a.8.8,0,1,1-.8-.8.8.8,0,0,1,.8.8Zm0,0" transform="translate(0 -0.32)"/><path d="M28,22.72a.8.8,0,1,1-.8-.8.8.8,0,0,1,.8.8Zm0,0" transform="translate(0 -0.32)"/><path d="M23.2,27.52a.8.8,0,1,1-.8-.8.8.8,0,0,1,.8.8Zm0,0" transform="translate(0 -0.32)"/><path d="M28,27.52a.8.8,0,1,1-.8-.8.8.8,0,0,1,.8.8Zm0,0" transform="translate(0 -0.32)"/><path d="M30.4,25.12a.8.8,0,1,1-.8-.8.8.8,0,0,1,.8.8Zm0,0" transform="translate(0 -0.32)"/><path d="M35.2,25.12a.8.8,0,1,1-.8-.8.8.8,0,0,1,.8.8Zm0,0" transform="translate(0 -0.32)"/><path d="M32.8,22.72a.8.8,0,1,1-.8-.8.8.8,0,0,1,.8.8Zm0,0" transform="translate(0 -0.32)"/><path d="M37.6,22.72a.8.8,0,1,1-.8-.8.8.8,0,0,1,.8.8Zm0,0" transform="translate(0 -0.32)"/><path d="M32.8,27.52a.8.8,0,1,1-.8-.8.8.8,0,0,1,.8.8Zm0,0" transform="translate(0 -0.32)"/><path d="M37.6,27.52a.8.8,0,1,1-.8-.8.8.8,0,0,1,.8.8Zm0,0" transform="translate(0 -0.32)"/><path d="M40,25.12a.8.8,0,1,1-.8-.8.8.8,0,0,1,.8.8Zm0,0" transform="translate(0 -0.32)"/><path d="M44.8,25.12a.8.8,0,1,1-.8-.8.8.8,0,0,1,.8.8Zm0,0" transform="translate(0 -0.32)"/><path d="M42.4,22.72a.8.8,0,1,1-.8-.8.8.8,0,0,1,.8.8Zm0,0" transform="translate(0 -0.32)"/><path d="M42.4,27.52a.8.8,0,1,1-.8-.8.8.8,0,0,1,.8.8Zm0,0" transform="translate(0 -0.32)"/></g></g></svg>