<svg xmlns="http://www.w3.org/2000/svg" viewBox="0 0 370.4 306.4"><title>gostinye</title><g id="Слой_2" data-name="Слой 2"><g id="Слой_1-2" data-name="Слой 1"><path d="M364.4,50.4a6,6,0,0,0,6-6V6a6,6,0,0,0-6-6H6A6,6,0,0,0,0,6V44.4a6,6,0,0,0,6,6h6.8V192H6a6,6,0,0,0-6,6V300.4a6,6,0,0,0,6,6H364.4a6,6,0,0,0,6-6V198a6,6,0,0,0-6-6h-6.8V50.4ZM12,12H358.4V38.4H12ZM50.4,192V178.4H320V192Zm237.2-51.2a6,6,0,0,0-6,6v19.6H268V146.8a6,6,0,0,0-12,0v19.6H242.4V146.8a6,6,0,0,0-12,0v19.6H216.8V146.8a6,6,0,0,0-12,0v19.6H191.2V146.8a6,6,0,0,0-12,0v19.6H165.6V146.8a6,6,0,1,0-12,0v19.6H140V146.8a6,6,0,0,0-12,0v19.6H114.4V146.8a6,6,0,0,0-12,0v19.6H88.8V146.8a6,6,0,0,0-12,0v19.6H50.4V127.2H320v39.2H293.6V146.8a6,6,0,0,0-6-6ZM320,115.2H293.6V95.6a6,6,0,0,0-12,0v19.6H268V95.6a6,6,0,0,0-12,0v19.6H242.4V95.6a6,6,0,0,0-12,0v19.6H216.8V95.6a6,6,0,1,0-12,0v19.6H191.2V95.6a6,6,0,1,0-12,0v19.6H165.6V95.6a6,6,0,0,0-12,0v19.6H140V95.6a6,6,0,1,0-12,0v19.6H114.4V95.6a6,6,0,0,0-12,0v19.6H88.8V95.6a6,6,0,0,0-12,0v19.6H50.4V76H320ZM320,64H50.4V50.4H320ZM24.8,50.4H38.4V192H24.8ZM230.4,229.6v64.8H140V229.6Zm102.4,0v64.8H242.4V229.6ZM128,294.4H37.6V229.6H128Zm230.4,0H344.8V223.6a6,6,0,0,0-6-6H31.6a6,6,0,0,0-6,6v70.8H12V204H358.4ZM345.6,192H332V50.4h13.6Zm0,0"/><path d="M178.8,248.8h12.8a6,6,0,0,0,0-12H178.8a6,6,0,0,0,0,12Zm0,0"/><path d="M76.4,248.8H89.2a6,6,0,1,0,0-12H76.4a6,6,0,0,0,0,12Zm0,0"/><path d="M281.2,248.8H294a6,6,0,0,0,0-12H281.2a6,6,0,0,0,0,12Zm0,0"/></g></g></svg>