<svg xmlns="http://www.w3.org/2000/svg" viewBox="0 0 409.6 409.6"><title>raznoe</title><g id="Слой_2" data-name="Слой 2"><g id="Слой_1-2" data-name="Слой 1"><path d="M32.89,382.67h145a6,6,0,0,0,6-6v-145a6,6,0,0,0-6-6h-145a6,6,0,0,0-6,6v145a6,6,0,0,0,6,6Zm6-145H171.92V370.75H38.86Zm0,0"/><path d="M403.64,0H6A6,6,0,0,0,0,6V403.64a6,6,0,0,0,6,6H403.64a6,6,0,0,0,6-6V6a6,6,0,0,0-6-6ZM198.84,397.68H11.93V210.76H198.84Zm0-198.84H11.93V11.93H198.84ZM397.68,397.68H210.76V210.76H397.68Zm0-198.84H210.76V11.93H397.68Zm0,0"/><path d="M231.73,183.83h145a6,6,0,0,0,6-6v-145a6,6,0,0,0-6-6h-145a6,6,0,0,0-6,6v145a6,6,0,0,0,6,6Zm74.36-20.3,51.36-91.95,11.14,6.23-51.35,91.95Zm64.66,8.38H329.7L370.76,98.4ZM237.69,38.86H370.76v26.5l-12.7-7.09a6,6,0,0,0-8.11,2.3L292.77,162.92a6,6,0,0,0,2.3,8.11l1.56.88H237.69Zm0,0"/><path d="M32.89,183.83h145a6,6,0,0,0,6-6v-145a6,6,0,0,0-6-6h-145a6,6,0,0,0-6,6v145a6,6,0,0,0,6,6Zm43.89-11.92H59.6V84H76.78Zm29.11,0H88.71V109.09H105.9Zm24.69,0H117.82V66.59h12.77ZM38.86,38.86H171.92V171.91h-29.4V60.63a6,6,0,0,0-6-6h-24.7a6,6,0,0,0-6,6V97.16H88.71V78.06a6,6,0,0,0-6-6H53.63a6,6,0,0,0-6,6v93.85H38.86Zm0,0"/><path d="M231.73,382.67h145a6,6,0,0,0,6-6v-145a6,6,0,0,0-6-6h-145a6,6,0,0,0-6,6v145a6,6,0,0,0,6,6Zm71-82.32H292.15V277.88a6,6,0,1,0-11.92,0v22.46H269.62V262.06h33.13Zm0,70.4H269.62V312.27h33.13ZM237.69,237.69H370.76V370.75H314.67V256.1a6,6,0,0,0-6-6H263.66a6,6,0,0,0-6,6V370.75h-20Zm0,0"/><path d="M139.76,298.26a5.95,5.95,0,0,0-6,6,6.41,6.41,0,0,0,.11,1.16,6.18,6.18,0,0,0,.35,1.13,5.43,5.43,0,0,0,.55,1,6,6,0,0,0,9.17.9,4.85,4.85,0,0,0,.73-.9,5.78,5.78,0,0,0,.56-1,6.31,6.31,0,0,0,.34-1.12,5.78,5.78,0,0,0,.12-1.16,6,6,0,0,0-6-6Zm0,0"/></g></g></svg>