<svg xmlns="http://www.w3.org/2000/svg" viewBox="0 0 48 48"><title>spalni</title><g id="Слой_2" data-name="Слой 2"><g id="Слой_1-2" data-name="Слой 1"><path d="M16.8,33.6a.8.8,0,1,1-.8-.8.8.8,0,0,1,.8.8Zm0,0"/><path d="M21.6,33.6a.8.8,0,1,1-.8-.8.8.8,0,0,1,.8.8Zm0,0"/><path d="M26.4,33.6a.8.8,0,1,1-.8-.8.79.79,0,0,1,.8.8Zm0,0"/><path d="M31.2,33.6a.8.8,0,1,1-.8-.8.8.8,0,0,1,.8.8Zm0,0"/><path d="M36,33.6a.8.8,0,1,1-.8-.8.8.8,0,0,1,.8.8Zm0,0"/><path d="M48,30.4v-8H45.6v-.68a3.32,3.32,0,0,0-3.32-3.32H5.71A3.32,3.32,0,0,0,2.4,21.71v.68H0v8H2.4v4H1.6a.8.8,0,0,0,0,1.6H0V48H8.8V45.6H39.2V48H48V36H46.4a.8.8,0,0,0,0-1.6h-.8v-4ZM46.4,24v4.8H43.2V24ZM1.6,24H4.8v4.8H1.6ZM7.2,46.4H1.6V37.6H4.8v8H7.2ZM8.8,44H6.4V37.6H41.6V44Zm2.54-12.8a1.15,1.15,0,0,1,.2-1.38l3.2-3.15a1.22,1.22,0,0,1,1.71,0l3.2,3.15a1.15,1.15,0,0,1,.2,1.38Zm-.94,2.41a.8.8,0,0,0,1.6,0,.78.78,0,0,0-.32-.62,4,4,0,0,1,1.13-.18H35.2A4,4,0,0,1,39.12,36H38.4a.8.8,0,1,0-1.6,0H33.6A.8.8,0,0,0,32,36H28.8a.8.8,0,0,0-1.6,0H24a.8.8,0,0,0-1.6,0H19.2a.8.8,0,1,0-1.6,0H14.4a.8.8,0,1,0-1.6,0H9.6a.8.8,0,0,0-.49-.73,4,4,0,0,1,1.29-1.65Zm17.15-3.8,3.2-3.15a1.22,1.22,0,0,1,1.71,0l3.2,3.15a1.15,1.15,0,0,1,.2,1.38H27.34a1.15,1.15,0,0,1,.2-1.38ZM46.4,46.4H40.8v-.8h2.4v-8h3.2ZM44,34.4h-.8a.8.8,0,1,0,0,1.6H40.73a5.61,5.61,0,0,0-3.33-4.34,2.73,2.73,0,0,0-.63-3l-3.2-3.15a2.83,2.83,0,0,0-4,0l-3.19,3.15a2.73,2.73,0,0,0-.77,2.52H21.54a2.73,2.73,0,0,0-.77-2.52l-3.2-3.15a2.83,2.83,0,0,0-4,0l-3.19,3.15A2.73,2.73,0,0,0,10,32a5.61,5.61,0,0,0-2.69,4H4.8a.8.8,0,0,0,0-1.6H4v-4H6.4v-8H4v-.68A1.72,1.72,0,0,1,5.71,20H42.29A1.72,1.72,0,0,1,44,21.71v.68H41.6v8H44Zm0,0"/><path d="M38.4,3.2H9.6V13.6H38.4ZM36.8,12H11.2V4.8H36.8Zm0,0"/><path d="M41.6,0H6.4V16.8H41.6ZM40,15.2H8V1.6H40Zm0,0"/><path d="M14.4,10.4a.8.8,0,0,0,.57-.23L16.8,8.33l1.83,1.83a.8.8,0,0,0,1.13,0L21.6,8.33l1.83,1.83a.8.8,0,0,0,1.13,0L26.4,8.33l1.84,1.83a.8.8,0,0,0,1.13,0L31.2,8.33,33,10.16A.8.8,0,0,0,34.16,9l-2.4-2.4a.8.8,0,0,0-1.13,0L28.8,8.47,27,6.63a.8.8,0,0,0-1.13,0L24,8.47,22.16,6.63a.8.8,0,0,0-1.13,0L19.2,8.47,17.37,6.63a.8.8,0,0,0-1.13,0L13.84,9a.8.8,0,0,0,.56,1.36Zm0,0"/></g></g></svg>